<?xml version="1.0" encoding="UTF-8"?>
<svg version="1.1" xmlns="http://www.w3.org/2000/svg" width="1200" height="630">
<path d="M0 0 C396 0 792 0 1200 0 C1200 207.9 1200 415.8 1200 630 C804 630 408 630 0 630 C0 422.1 0 214.2 0 0 Z " fill="#232F3E" transform="translate(0,0)"/>
<path d="M0 0 C0.86818359 -0.03738281 1.73636719 -0.07476562 2.63085938 -0.11328125 C3.8905957 -0.13068359 3.8905957 -0.13068359 5.17578125 -0.1484375 C6.32880737 -0.1781665 6.32880737 -0.1781665 7.50512695 -0.20849609 C10.91533181 0.70328258 11.84500872 2.41117026 13.6875 5.375 C14.73037767 8.19203353 15.41681501 11.05572457 16.08984375 13.98046875 C16.29428604 14.81854568 16.49872833 15.65662262 16.70936584 16.52009583 C17.36025471 19.19809578 17.9933326 21.87990792 18.625 24.5625 C19.46254619 28.05717845 20.30706856 31.55015276 21.15234375 35.04296875 C21.46452095 36.34050079 21.46452095 36.34050079 21.78300476 37.66424561 C23.54175597 44.91945008 25.51544184 52.10342294 27.54272461 59.28735352 C29.12901214 64.91612895 30.57994421 70.57727052 32 76.25 C32.26361328 77.27996094 32.52722656 78.30992187 32.79882812 79.37109375 C33.17104492 80.85416016 33.17104492 80.85416016 33.55078125 82.3671875 C33.77032471 83.23714355 33.98986816 84.10709961 34.21606445 85.00341797 C34.6875 87.375 34.6875 87.375 34.6875 91.375 C35.3475 91.375 36.0075 91.375 36.6875 91.375 C36.81423096 90.21846924 36.94096191 89.06193848 37.0715332 87.87036133 C37.60088402 83.65297029 38.50106028 79.56680822 39.54296875 75.44921875 C39.72513947 74.71211166 39.90731018 73.97500458 40.09500122 73.21556091 C40.48375128 71.64319161 40.87437952 70.07128563 41.26675415 68.49981689 C42.30038134 64.35794396 43.31919916 60.21245301 44.3359375 56.06640625 C44.64036522 54.82549225 44.64036522 54.82549225 44.95094299 53.55950928 C46.74050654 46.22874519 48.39377725 38.87322615 50 31.5 C53.30678679 16.46186081 53.30678679 16.46186081 54.8125 10.4375 C55.08320312 9.33535156 55.35390625 8.23320312 55.6328125 7.09765625 C56.90518199 3.81305798 57.75103282 2.35922623 60.6875 0.375 C63.70236811 -0.19960284 66.62677008 -0.18367214 69.6875 -0.125 C70.49445313 -0.14046875 71.30140625 -0.1559375 72.1328125 -0.171875 C72.91398438 -0.16671875 73.69515625 -0.1615625 74.5 -0.15625 C75.56154297 -0.14948242 75.56154297 -0.14948242 76.64453125 -0.14257812 C79.66517141 0.62268922 80.79040728 1.92271546 82.6875 4.375 C83.74902344 7.51831055 83.74902344 7.51831055 84.546875 11.26171875 C84.69709106 11.94350693 84.84730713 12.6252951 85.0020752 13.32774353 C85.32492956 14.80045056 85.64111082 16.27463318 85.95129395 17.75006104 C86.6124697 20.89467135 87.3053954 24.03201865 87.99676514 27.17010498 C88.35519604 28.79804518 88.71198897 30.42634682 89.06719971 32.05499268 C90.8928377 40.40233373 92.90131749 48.70195058 94.9375 57 C95.60087486 59.71208958 96.26337237 62.4243931 96.92578125 65.13671875 C97.2295166 66.3798584 97.53325195 67.62299805 97.84619141 68.90380859 C99.27502082 74.79907751 100.64363958 80.70789727 101.99609375 86.62109375 C102.56661515 89.31319128 102.56661515 89.31319128 103.6875 91.375 C106.66444065 80.00054879 109.62818048 68.62274533 112.56567383 57.23803711 C113.23381829 54.64875232 113.90278533 52.05969583 114.57299805 49.47094727 C116.17640589 43.27196263 117.76866767 37.07067221 119.32452393 30.85955811 C120.03950069 28.00803437 120.76038488 25.15801876 121.48175049 22.30810547 C121.82403017 20.94882258 122.16340291 19.588804 122.49969482 18.22802734 C122.96770208 16.33508048 123.44652659 14.44481807 123.92578125 12.5546875 C124.328573 10.94182861 124.328573 10.94182861 124.73950195 9.29638672 C125.71282825 6.29694749 126.88854874 3.95934351 128.6875 1.375 C131.97103549 -0.26676774 135.58269638 0.19045961 139.1875 0.1875 C139.97253906 0.17525391 140.75757813 0.16300781 141.56640625 0.15039062 C143.60813726 0.14513746 145.64942251 0.2527982 147.6875 0.375 C148.6775 1.365 148.6775 1.365 149.6875 2.375 C149.34156401 7.92786915 148.07374538 12.91824976 146.3125 18.1875 C145.77515642 19.8421607 145.23878729 21.497138 144.703125 23.15234375 C144.39310547 24.1047998 144.08308594 25.05725586 143.76367188 26.03857422 C141.73710042 32.32149743 139.76916738 38.62299695 137.79315186 44.92196655 C137.07880053 47.19806256 136.36309323 49.47372768 135.64697266 51.74926758 C132.73585408 61.00370306 129.86497348 70.26973899 127.02233887 79.54547119 C125.50005499 84.50907595 123.96713409 89.46923604 122.42358398 94.42626953 C121.88596904 96.15893132 121.35185347 97.89268235 120.82104492 99.62744141 C120.04444573 102.16330455 119.25591395 104.69518202 118.46484375 107.2265625 C118.23039047 108.00150055 117.99593719 108.7764386 117.75437927 109.57485962 C116.58853461 113.26369832 115.66672714 115.87349775 112.6875 118.375 C109.38426471 119.00193284 106.04361558 118.83849808 102.6875 118.8125 C101.77226563 118.83248047 100.85703125 118.85246094 99.9140625 118.87304688 C99.03492188 118.87240234 98.15578125 118.87175781 97.25 118.87109375 C96.44691406 118.87294678 95.64382813 118.8747998 94.81640625 118.87670898 C92.6875 118.375 92.6875 118.375 90.98291016 116.61523438 C89.68764453 114.37524995 88.99596907 112.54430307 88.3984375 110.03515625 C88.18372803 109.15585449 87.96901855 108.27655273 87.74780273 107.37060547 C87.52165283 106.40268066 87.29550293 105.43475586 87.0625 104.4375 C86.8137915 103.4077002 86.56508301 102.37790039 86.30883789 101.31689453 C85.74632478 98.9860727 85.18774634 96.65429908 84.63232422 94.32177734 C83.59830348 89.98713492 82.53581922 85.6596021 81.47265625 81.33203125 C77.89423125 66.74574123 74.31727843 52.16193853 71.09545898 37.49169922 C70.22943342 33.3213004 70.22943342 33.3213004 68.6875 29.375 C68.51210693 30.16745117 68.33671387 30.95990234 68.15600586 31.77636719 C64.69006154 47.3916421 61.11656879 62.96332612 57.18237305 78.46875 C55.14502564 86.50043392 53.19460597 94.54788251 51.37255859 102.63134766 C50.19073014 107.73917845 48.74527843 112.54463589 46.6875 117.375 C43.16191767 119.13779117 39.13354409 118.60213881 35.25 118.625 C34.37794922 118.645625 33.50589844 118.66625 32.60742188 118.6875 C31.76888672 118.69265625 30.93035156 118.6978125 30.06640625 118.703125 C29.2988501 118.7124707 28.53129395 118.72181641 27.74047852 118.73144531 C25.11083912 118.27487812 24.29795027 117.47352906 22.6875 115.375 C21.57187665 112.38310102 20.60853338 109.42851608 19.6875 106.375 C18.93868615 103.97879567 18.18854957 101.58300452 17.4375 99.1875 C17.12341187 98.17623047 17.12341187 98.17623047 16.80297852 97.14453125 C15.56257917 93.15198165 14.30260117 89.16655732 13.01953125 85.1875 C9.88389012 75.45267214 6.87333189 65.70303395 4.10449219 55.85742188 C1.82381077 47.77437442 -0.57984858 39.7295921 -3 31.6875 C-3.192453 31.0478833 -3.38490601 30.4082666 -3.58319092 29.74926758 C-4.14241925 27.89135422 -4.70206467 26.03356641 -5.26171875 24.17578125 C-5.61057129 23.01570557 -5.95942383 21.85562988 -6.31884766 20.66040039 C-6.95219021 18.56632404 -7.59182801 16.47413406 -8.23974609 14.38452148 C-8.51254395 13.49966064 -8.7853418 12.6147998 -9.06640625 11.703125 C-9.30302979 10.94547852 -9.53965332 10.18783203 -9.78344727 9.40722656 C-10.49549176 6.67208195 -10.60010984 4.17919597 -10.3125 1.375 C-8.06104186 -0.87645814 -3.02067274 0.04868484 0 0 Z " fill="#FBFBFB" transform="translate(536.3125,198.625)"/>
<path d="M0 0 C6.09498224 0.25274249 10.67454802 3.40816867 15.8125 6.375 C54.75502102 28.17169934 100.24892292 42.81005441 144.55859375 48.67626953 C146.29984863 48.90715993 148.03929833 49.15183842 149.77734375 49.40576172 C213.1026809 58.46242593 290.27014417 52.23821694 348.16870117 22.90112305 C351.4383294 21.29224452 354.40671202 21.76817497 358 22 C360 24 360 24 360.41796875 27.36328125 C360 31 360 31 358.11328125 33.23046875 C356.72689453 34.19919922 356.72689453 34.19919922 355.3125 35.1875 C354.78849609 35.55423828 354.26449219 35.92097656 353.72460938 36.29882812 C320.99051603 58.5756858 283.47848582 71.68812315 244.6875 78.25 C243.91763763 78.38119232 243.14777527 78.51238464 242.35458374 78.64755249 C185.55853191 88.23305499 128.72980812 79.40291538 76 57 C75.20464844 56.66242676 74.40929687 56.32485352 73.58984375 55.97705078 C55.59787367 48.21620322 38.55232394 37.89595219 23 26 C22.41283203 25.55414551 21.82566406 25.10829102 21.22070312 24.64892578 C17.0906618 21.50070592 13.02449932 18.28186895 9 15 C7.97648437 14.16855469 6.95296875 13.33710938 5.8984375 12.48046875 C4.98320312 11.70316406 4.06796875 10.92585938 3.125 10.125 C2.32320313 9.44695312 1.52140625 8.76890625 0.6953125 8.0703125 C-1 6 -1 6 -1.3203125 3.3046875 C-1 1 -1 1 0 0 Z " fill="#FCFCFC" transform="translate(403,352)"/>
<path d="M0 0 C8.58625682 7.82725069 12.05509356 16.53653116 13 28 C13.13892472 32.50648544 13.13688007 37.01117219 13.140625 41.51953125 C13.15894963 44.17775102 13.17851336 46.83594054 13.19921875 49.49414062 C13.22948835 53.65443884 13.25232166 57.81443451 13.25048828 61.97485352 C13.24984947 64.70051942 13.26245782 67.42551445 13.28948975 70.15104675 C13.31458357 72.70424409 13.32137057 75.25771086 13.30670166 77.81098938 C13.40754923 85.02706625 14.45039523 90.23339498 17.92987061 96.59477234 C19.13621491 99.30615724 19.3452713 101.06424586 19 104 C17.1015625 105.984375 17.1015625 105.984375 14.625 107.75 C13.81289063 108.34296875 13.00078125 108.9359375 12.1640625 109.546875 C8.55128871 111.97278087 6.39327924 112.67588911 2 112 C-1.79247599 108.75583379 -4.72914126 104.41555867 -7 100 C-7 99.34 -7 98.68 -7 98 C-8.2375 99.08667969 -8.2375 99.08667969 -9.5 100.1953125 C-22.11658635 110.91348414 -34.17726373 116.27427465 -50.921875 115.38671875 C-61.50292511 114.52112872 -68.31332102 110.68667898 -75.75 103.25 C-82.17668186 93.96701509 -83.89169398 84.10221803 -83 73 C-80.77311434 63.17625297 -75.65096766 55.19425176 -67.41015625 49.3828125 C-48.77947405 38.69357182 -28.91029268 41.05553707 -9 46 C-8.95245996 30.21358189 -8.95245996 30.21358189 -15.421875 16.29296875 C-23.83904708 8.76524011 -35.47161876 10.2985524 -45.98486328 10.73974609 C-53.42860401 11.38225845 -60.64238733 13.71168693 -67.25390625 17.18359375 C-69.75831087 18.35455699 -71.41376417 17.76888092 -74 17 C-75.87077602 15.12922398 -75.30246057 12.19569029 -75.375 9.6875 C-75.42398437 8.53636719 -75.47296875 7.38523438 -75.5234375 6.19921875 C-75 3 -75 3 -72.9140625 0.77734375 C-53.13460481 -11.2865346 -19.05830583 -15.82122629 0 0 Z " fill="#FBFBFB" transform="translate(501,205)"/>
<path d="M0 0 C1.88857368 2.88322248 1.45244074 5.59517382 1.359375 8.9765625 C1.31876953 10.88501953 1.31876953 10.88501953 1.27734375 12.83203125 C1.24253906 13.80785156 1.20773437 14.78367188 1.171875 15.7890625 C-3.36640464 17.18675159 -5.85280827 16.27297227 -10.140625 14.4140625 C-15.09252836 12.4189318 -19.46962352 10.92257998 -24.828125 10.7890625 C-26.05789063 10.73878906 -27.28765625 10.68851563 -28.5546875 10.63671875 C-39.57990398 10.21665268 -39.57990398 10.21665268 -49.828125 13.7890625 C-53.26641359 17.3133083 -54.73177784 19.63289653 -55.140625 24.5390625 C-55.01703687 29.10358395 -54.06737449 31.40257439 -50.828125 34.7890625 C-41.33640279 40.45234637 -30.90920593 43.61963128 -20.4296875 46.91210938 C-8.67161979 50.77565167 0.2465884 55.60145843 6.171875 66.7890625 C9.4891461 73.57438974 9.1678946 82.32282775 7.046875 89.4765625 C2.22212645 101.9217083 -5.82557482 108.18405456 -17.64453125 113.58984375 C-33.54679262 119.58002073 -56.42191331 117.33050372 -71.7578125 110.48046875 C-77.48579395 107.47372459 -77.48579395 107.47372459 -78.828125 104.7890625 C-78.89928882 102.41503749 -78.91221585 100.03905573 -78.890625 97.6640625 C-78.88160156 96.38273437 -78.87257813 95.10140625 -78.86328125 93.78125 C-78.85167969 92.79382813 -78.84007812 91.80640625 -78.828125 90.7890625 C-74.44957798 89.47549839 -72.27326994 90.15425596 -68.203125 92.1015625 C-55.41598053 97.66791318 -37.18611705 100.03439217 -23.765625 95.1015625 C-19.44572015 92.93389596 -16.98154975 90.095912 -14.828125 85.7890625 C-14.45321717 81.29016852 -14.40332733 78.73100515 -16.265625 74.6015625 C-22.53993511 67.71512457 -31.45720773 65.42171268 -40.140625 62.8515625 C-67.13873046 54.48468106 -67.13873046 54.48468106 -74.42578125 42.06640625 C-78.65862331 33.11730562 -79.58805415 23.98262408 -76.328125 14.5390625 C-71.03712535 3.24305287 -61.96398219 -2.58251195 -50.625 -7.0859375 C-35.14088613 -11.47513513 -13.31529845 -8.81996265 0 0 Z " fill="#FCFCFC" transform="translate(773.828125,204.2109375)"/>
<path d="M0 0 C0.91394531 0.36351562 1.82789063 0.72703125 2.76953125 1.1015625 C5 3 5 3 5.6640625 6.59765625 C5.6856842 8.0858374 5.67020402 9.57484842 5.625 11.0625 C5.60953125 11.85962402 5.5940625 12.65674805 5.578125 13.47802734 C4.75668159 33.59154324 -4.38635506 54.17628182 -19 68 C-19.495 68.61875 -19.99 69.2375 -20.5 69.875 C-22 71 -22 71 -24.6875 70.6875 C-25.450625 70.460625 -26.21375 70.23375 -27 70 C-26.35253664 64.62173768 -24.6156453 59.9548945 -22.6875 54.9375 C-22.05270837 53.23511167 -21.41989823 51.53198318 -20.7890625 49.828125 C-20.32935059 48.58772461 -20.32935059 48.58772461 -19.86035156 47.32226562 C-19.57643555 46.55591797 -19.29251953 45.78957031 -19 45 C-18.55398438 43.79859375 -18.10796875 42.5971875 -17.6484375 41.359375 C-15.09322337 33.89594381 -13.29656735 25.85060266 -15 18 C-19.50922394 14.27533348 -24.56609401 13.87440468 -30.23828125 13.8671875 C-31.71651367 13.86525391 -31.71651367 13.86525391 -33.22460938 13.86328125 C-34.24361328 13.86714844 -35.26261719 13.87101562 -36.3125 13.875 C-37.31990234 13.87113281 -38.32730469 13.86726563 -39.36523438 13.86328125 C-43.71443688 13.86894796 -47.97923199 13.91907209 -52.29296875 14.50390625 C-55.91546006 14.98868644 -59.34917906 15.10052938 -63 15.0625 C-64.134375 15.05347656 -65.26875 15.04445313 -66.4375 15.03515625 C-67.283125 15.02355469 -68.12875 15.01195312 -69 15 C-68.46100537 11.15003836 -68.26118205 10.23743823 -65.25 7.5 C-47.91310367 -3.72837685 -19.46396588 -7.89606629 0 0 Z " fill="#F9FAFA" transform="translate(793,347)"/>
<path d="M0 0 C0.42363868 10.15163805 0.36903091 18.22092064 -6.25 26.3125 C-12.08113865 32.47439652 -18.85256314 35.65359634 -27.30859375 36.22265625 C-39.42060306 36.51744589 -39.42060306 36.51744589 -45 33 C-49.64554616 28.10995141 -50.18819031 24.30208388 -50.3125 17.6875 C-50.34988281 16.39199219 -50.38726562 15.09648437 -50.42578125 13.76171875 C-49.82560289 8.45922553 -47.51408035 5.51408035 -43.8125 1.8125 C-31.04866992 -6.41307939 -13.99305429 -3.70699052 0 0 Z " fill="#263240" transform="translate(492,266)"/>
</svg>
