<?xml version="1.0" encoding="UTF-8"?>
<svg version="1.1" xmlns="http://www.w3.org/2000/svg" width="320" height="320">
<path d="M0 0 C4.34604401 0.43598118 5.69205966 1.41111225 8.88671875 4.30859375 C9.83289063 5.13101563 10.7790625 5.9534375 11.75390625 6.80078125 C13.21183594 8.07308594 13.21183594 8.07308594 14.69921875 9.37109375 C40.75619988 30.34378588 75.04774054 44.30420408 108.69921875 45.37109375 C109.71556396 45.40976563 109.71556396 45.40976563 110.75244141 45.44921875 C121.52987459 45.81370603 131.78355543 45.1306502 142.43237305 43.44946289 C155.09697617 41.46674851 155.09697617 41.46674851 160.69921875 42.37109375 C163.9216794 45.5935544 163.19388077 49.70381726 163.20556641 54.0378418 C162.90266559 66.70273078 159.64969302 79.11046568 156.69921875 91.37109375 C156.34682129 92.840625 156.34682129 92.840625 155.98730469 94.33984375 C148.18314954 125.9654157 133.31949413 158.29116462 110.29785156 181.73291016 C108.49014738 183.58533762 106.71741544 185.46874249 104.94140625 187.3515625 C90.35948801 202.60307674 72.41355864 215.90014677 50.46484375 216.8046875 C48.29309275 216.82793153 46.12100124 216.82868201 43.94921875 216.80859375 C42.80759277 216.80174561 41.6659668 216.79489746 40.48974609 216.7878418 C31.63500186 216.6200002 24.03759336 215.4954233 15.69921875 212.37109375 C14.64992187 212.00886719 13.600625 211.64664063 12.51953125 211.2734375 C5.00522069 208.45318099 -1.04590189 204.34863956 -7.30078125 199.37109375 C-8.23083984 198.65373047 -8.23083984 198.65373047 -9.1796875 197.921875 C-12.36985534 195.38733062 -14.84807624 192.61216822 -17.30078125 189.37109375 C-17.96078125 188.71109375 -18.62078125 188.05109375 -19.30078125 187.37109375 C-20.00788803 185.72117793 -20.68022114 184.05547119 -21.30078125 182.37109375 C-22.11160156 182.58765625 -22.92242187 182.80421875 -23.7578125 183.02734375 C-39.49144998 186.9836484 -53.9259129 185.92727266 -68.41796875 178.1015625 C-76.59493832 173.19316478 -83.44585324 167.91392893 -89.30078125 160.37109375 C-89.996875 159.51 -90.69296875 158.64890625 -91.41015625 157.76171875 C-107.07995895 137.76921186 -116.58826477 113.95807349 -122.30078125 89.37109375 C-122.46964844 88.69820313 -122.63851562 88.0253125 -122.8125 87.33203125 C-125.32163433 77.2553478 -125.5185094 67.68898895 -125.30078125 57.37109375 C-123.32078125 56.87609375 -123.32078125 56.87609375 -121.30078125 56.37109375 C-121.30078125 55.38109375 -121.30078125 54.39109375 -121.30078125 53.37109375 C-118.44005734 51.94073179 -116.22122591 52.4782708 -113.05078125 52.74609375 C-111.37242188 52.88144531 -111.37242188 52.88144531 -109.66015625 53.01953125 C-106.30078125 53.37109375 -106.30078125 53.37109375 -103.61328125 53.89453125 C-83.415054 56.80040828 -62.38700091 53.96305813 -43.30371094 47.04833984 C-41.22993917 46.34714008 -39.14801583 45.80661277 -37.02734375 45.265625 C-31.58623518 43.6680123 -26.92733592 42.1050292 -23.90869141 37.03125 C-21.83273235 32.37308192 -20.3531273 27.62191445 -18.9765625 22.71875 C-17.56357551 17.76027363 -15.64013554 13.349647 -12.30078125 9.37109375 C-9.61328125 8.18359375 -9.61328125 8.18359375 -7.30078125 7.37109375 C-6.06787924 4.91404613 -6.06787924 4.91404613 -5.30078125 2.37109375 C-3.30078125 0.37109375 -3.30078125 0.37109375 0 0 Z M-3.30078125 80.37109375 C-0.64645242 83.02542258 2.26867273 83.58866661 5.7890625 84.5703125 C6.48939102 84.76961868 7.18971954 84.96892487 7.91127014 85.17427063 C9.3922959 85.59356696 10.87429692 86.00943137 12.35717773 86.42211914 C14.62751998 87.05602535 16.89283589 87.70599036 19.15820312 88.35742188 C20.59738008 88.76270072 22.03682494 89.16702968 23.4765625 89.5703125 C24.49386696 89.86393929 24.49386696 89.86393929 25.53172302 90.16349792 C28.81563957 91.06378741 30.3923935 91.47336883 33.69921875 90.37109375 C28.88413665 84.23088006 24.52522639 79.16330924 16.69921875 77.37109375 C9.38733742 76.60703325 3.17918783 76.75436682 -3.30078125 80.37109375 Z M-66.83984375 91.12109375 C-67.48069916 91.29866211 -68.12155457 91.47623047 -68.78182983 91.65917969 C-70.83048907 92.22741775 -72.87813657 92.79921173 -74.92578125 93.37109375 C-76.31373697 93.75674485 -77.70175703 94.14216443 -79.08984375 94.52734375 C-82.49424067 95.47257407 -85.89773905 96.4209962 -89.30078125 97.37109375 C-84.90571207 101.8948888 -81.81679106 103.45535057 -75.48828125 103.74609375 C-70.39536945 103.60947317 -66.27243119 102.68385245 -62.30078125 99.37109375 C-60.16938218 96.32451768 -58.30078125 93.1550907 -58.30078125 89.37109375 C-61.30292793 89.37109375 -63.95070597 90.31715976 -66.83984375 91.12109375 Z M76.69921875 104.37109375 C80.53519822 108.20707322 86.72796801 108.93842018 91.875 110.42211914 C94.06233789 111.05515532 96.24398134 111.70559068 98.42578125 112.35742188 C99.81609423 112.76279045 101.20671011 113.16712188 102.59765625 113.5703125 C103.86270996 113.93987061 105.12776367 114.30942871 106.43115234 114.69018555 C109.43670208 115.31639787 110.89563696 115.4746687 113.69921875 114.37109375 C108.88413665 108.23088006 104.52522639 103.16330924 96.69921875 101.37109375 C89.38733742 100.60703325 83.17918783 100.75436682 76.69921875 104.37109375 Z M-52.25390625 136.1171875 C-55.88703558 140.23656899 -59.30078125 144.71231105 -59.30078125 150.37109375 C-53.77402222 149.7325439 -48.67710774 148.43416021 -43.36328125 146.80859375 C-42.58404297 146.57462891 -41.80480469 146.34066406 -41.00195312 146.09960938 C-39.10020938 145.52791954 -37.20029899 144.95013684 -35.30078125 144.37109375 C-35.96078125 139.09109375 -36.62078125 133.81109375 -37.30078125 128.37109375 C-42.49168482 128.37109375 -48.50145109 132.76249259 -52.25390625 136.1171875 Z M9.69921875 137.37109375 C11.87899533 141.38647166 14.36067121 144.26017445 17.69921875 147.37109375 C18.15683594 147.83386719 18.61445313 148.29664063 19.0859375 148.7734375 C30.50073256 159.61317991 46.34611958 163.85201062 61.7265625 163.80200195 C68.64216436 163.56952359 77.61263376 162.45767874 82.69921875 157.37109375 C73.47737353 154.76035551 64.25474394 152.15241214 55.03109169 149.54806519 C50.74852542 148.33876445 46.46623894 147.1284911 42.18457031 145.91601562 C38.05498608 144.7466454 33.92469537 143.57980309 29.79389572 142.41473389 C28.21553321 141.96908122 26.63743043 141.52250762 25.05958939 141.07501221 C22.85501609 140.44993512 20.64955433 139.82809515 18.44384766 139.20703125 C17.18698151 138.8517334 15.93011536 138.49643555 14.63516235 138.13037109 C11.88192508 137.28763471 11.88192508 137.28763471 9.69921875 137.37109375 Z " fill="#1D8C22" transform="translate(141.30078125,51.62890625)"/>
<path d="M0 0 C1.51683399 0.18416808 3.02417792 0.4473588 4.5234375 0.7421875 C5.46316406 0.92136719 6.40289062 1.10054688 7.37109375 1.28515625 C8.36238281 1.47980469 9.35367188 1.67445312 10.375 1.875 C29.32807722 5.59380405 47.6551625 6.09031647 66.7331543 3.07836914 C79.39775742 1.09565476 79.39775742 1.09565476 85 2 C88.22246065 5.22246065 87.49466202 9.33272351 87.50634766 13.66674805 C87.20344684 26.33163703 83.95047427 38.73937193 81 51 C80.76506836 51.9796875 80.53013672 52.959375 80.28808594 53.96875 C72.20358277 86.73040476 56.70403839 118.76499115 33 143 C32.39027344 143.64839844 31.78054687 144.29679688 31.15234375 144.96484375 C28.32016179 147.92740749 25.51447578 149.93782965 22 152 C20.29071278 153.12355017 18.58241916 154.24861303 16.875 155.375 C11.46860827 158.83070715 5.91703248 161.53917808 0 164 C-0.74507812 164.33386719 -1.49015625 164.66773438 -2.2578125 165.01171875 C-9.65864024 167.67896863 -16.73613831 168.31800604 -24.5625 168.25 C-25.45646484 168.25773438 -26.35042969 168.26546875 -27.27148438 168.2734375 C-32.84958455 168.25711533 -37.64681556 167.57409858 -43 166 C-41.63730118 155.99396637 -39.09154969 146.44985404 -36.375 136.75 C-35.94996252 135.21499824 -35.52547962 133.6798428 -35.1015625 132.14453125 C-34.07407923 128.42788878 -33.03916247 124.71339312 -32 121 C-30.04115295 121.25266012 -28.08230591 121.50532023 -26.12345886 121.75798035 C-11.63151259 123.4096892 2.62938257 121.21523629 15 113 C16.75015323 110.94611249 16.75015323 110.94611249 18 109 C16.98164063 108.91492188 15.96328125 108.82984375 14.9140625 108.7421875 C8.91418609 107.98923075 3.14861814 106.2952606 -2.6640625 104.67138672 C-4.62528079 104.12492176 -6.58968047 103.59125276 -8.5546875 103.05859375 C-10.43414062 102.53845703 -10.43414062 102.53845703 -12.3515625 102.0078125 C-14.05046631 101.53819092 -14.05046631 101.53819092 -15.78369141 101.05908203 C-19.05024505 99.98345506 -21.9672854 98.61290225 -25 97 C-24.28924222 91.29076086 -23.09926294 85.77774519 -21.75 80.1875 C-21.52675049 79.25591064 -21.30350098 78.32432129 -21.07348633 77.36450195 C-19.54543608 71.06270459 -17.86750587 64.81895956 -16.08691406 58.5847168 C-13.8817232 50.7677711 -11.95155539 42.88301521 -10 35 C-7.76865665 25.99883332 -5.53433995 17.00144992 -3.0625 8.0625 C-2.86333984 7.33611328 -2.66417969 6.60972656 -2.45898438 5.86132812 C-1.12742644 1.12742644 -1.12742644 1.12742644 0 0 Z M1 64 C4.83597947 67.83597947 11.02874926 68.56732643 16.17578125 70.05102539 C18.36311914 70.68406157 20.54476259 71.33449693 22.7265625 71.98632812 C24.11687548 72.3916967 25.50749136 72.79602813 26.8984375 73.19921875 C28.16349121 73.56877686 29.42854492 73.93833496 30.73193359 74.3190918 C33.73748333 74.94530412 35.19641821 75.10357495 38 74 C33.1849179 67.85978631 28.82600764 62.79221549 21 61 C13.68811867 60.2359395 7.47996908 60.38327307 1 64 Z " fill="#2DAC32" transform="translate(217,92)"/>
<path d="M0 0 C1.07637765 3.23003634 0.92860697 4.92033958 -0.30859375 8.06640625 C-2.18278791 13.27557922 -3.14382294 18.48970723 -4.0625 23.9375 C-4.38584146 25.80093369 -4.7100555 27.66421619 -5.03515625 29.52734375 C-5.27129639 30.9038208 -5.27129639 30.9038208 -5.51220703 32.30810547 C-5.97228315 34.84704404 -6.50824452 37.35829659 -7.05859375 39.87890625 C-9.23610165 50.67075446 -9.21091408 61.84417205 -9.5625 72.8125 C-9.62727539 74.72772461 -9.62727539 74.72772461 -9.69335938 76.68164062 C-9.79805755 79.7876865 -9.90023438 82.89379246 -10 86 C-10.81621826 86.3297583 -11.63243652 86.6595166 -12.47338867 86.99926758 C-13.5482251 87.43907959 -14.62306152 87.8788916 -15.73046875 88.33203125 C-16.79418701 88.76491455 -17.85790527 89.19779785 -18.95385742 89.64379883 C-29.81819135 94.48080892 -35.6165105 103.27163982 -40 114 C-39.43192627 113.82871582 -38.86385254 113.65743164 -38.27856445 113.48095703 C-27.58464338 110.27915836 -17.13306261 107.1979919 -6 106 C-5.5978125 107.43666016 -5.5978125 107.43666016 -5.1875 108.90234375 C-2.11456425 119.47334995 2.09144514 129.1585302 7 139 C5.73984768 139.47596089 4.47936612 139.95105013 3.21875 140.42578125 C2.51685547 140.69044189 1.81496094 140.95510254 1.09179688 141.2277832 C-10.84569278 145.6346786 -25.09112329 145.62089226 -37 141 C-46.18950228 136.63088396 -53.82496825 131.27591094 -61 124 C-61.66128906 123.34902344 -62.32257812 122.69804687 -63.00390625 122.02734375 C-85.03928177 98.92358639 -96.17573174 64.84287848 -101 34 C-101.19464844 32.77667969 -101.38929687 31.55335937 -101.58984375 30.29296875 C-101.95826831 27.33504588 -102.10327004 24.53871264 -102.0625 21.5625 C-102.05347656 20.69753906 -102.04445313 19.83257812 -102.03515625 18.94140625 C-102.02355469 18.30074219 -102.01195313 17.66007812 -102 17 C-99.13927609 15.56963804 -96.92044466 16.10717705 -93.75 16.375 C-92.63109375 16.46523437 -91.5121875 16.55546875 -90.359375 16.6484375 C-87 17 -87 17 -84.3125 17.5234375 C-55.05617781 21.73248385 -27.10016726 13.56344617 -1 1 C-0.67 0.67 -0.34 0.34 0 0 Z M-47.5390625 54.75 C-48.17991791 54.92756836 -48.82077332 55.10513672 -49.48104858 55.28808594 C-51.52970782 55.856324 -53.57735532 56.42811798 -55.625 57 C-57.01295572 57.3856511 -58.40097578 57.77107068 -59.7890625 58.15625 C-63.19345942 59.10148032 -66.5969578 60.04990245 -70 61 C-65.60493082 65.52379505 -62.51600981 67.08425682 -56.1875 67.375 C-51.0945882 67.23837942 -46.97164994 66.3127587 -43 63 C-40.86860093 59.95342393 -39 56.78399695 -39 53 C-42.00214668 53 -44.64992472 53.94606601 -47.5390625 54.75 Z " fill="#D55348" transform="translate(122,88)"/>
<path d="M0 0 C0.16435547 1.15894775 0.16435547 1.15894775 0.33203125 2.34130859 C3.96101614 27.32008368 9.51631834 51.31674557 21 74 C21.31404785 74.62261719 21.6280957 75.24523437 21.95166016 75.88671875 C26.87296616 85.44898707 33.03883066 93.83678684 40 102 C40.66773438 102.78375 41.33546875 103.5675 42.0234375 104.375 C51.88208005 115.02399786 66.05070142 122.25952637 80.5234375 123.23828125 C90.61208417 123.43268722 99.345728 121.8757406 109 119 C109.70125 119.78503906 110.4025 120.57007813 111.125 121.37890625 C114.04295404 124.62417996 117.00809454 127.82287633 120 131 C120.64324219 131.68449219 121.28648437 132.36898437 121.94921875 133.07421875 C131.19821066 141.99066264 144.77446431 146.94792692 157 150 C157.73605469 150.19207031 158.47210938 150.38414062 159.23046875 150.58203125 C170.48975766 152.28124692 183.36043593 152.20516104 194 148 C194.95648438 147.64808594 195.91296875 147.29617187 196.8984375 146.93359375 C205.21724038 143.6937515 214.91978044 139.75579951 221 133 C221.66 133.33 222.32 133.66 223 134 C210.93519747 147.50108855 193.23292522 158.49926673 174.91723633 160.30371094 C171.68853085 160.43677092 168.48126396 160.46738812 165.25 160.4375 C164.10837402 160.43065186 162.96674805 160.42380371 161.79052734 160.41674805 C152.93578311 160.24890645 145.33837461 159.12432955 137 156 C135.95070312 155.63777344 134.90140625 155.27554688 133.8203125 154.90234375 C126.30600194 152.08208724 120.25487936 147.97754581 114 143 C113.06994141 142.28263672 113.06994141 142.28263672 112.12109375 141.55078125 C108.93092591 139.01623687 106.45270501 136.24107447 104 133 C103.34 132.34 102.68 131.68 102 131 C101.29289322 129.35008418 100.62056011 127.68437744 100 126 C99.18917969 126.2165625 98.37835938 126.433125 97.54296875 126.65625 C81.80933127 130.61255465 67.37486835 129.55617891 52.8828125 121.73046875 C44.70584293 116.82207103 37.85492801 111.54283518 32 104 C31.30390625 103.13890625 30.6078125 102.2778125 29.890625 101.390625 C14.2208223 81.39811811 4.71251648 57.58697974 -1 33 C-1.16886719 32.32710937 -1.33773438 31.65421875 -1.51171875 30.9609375 C-4.02085308 20.88425405 -4.21772815 11.3178952 -4 1 C-2 0 -2 0 0 0 Z " fill="#2F4550" transform="translate(20,108)"/>
<path d="M0 0 C20.27863097 4.85409749 40.34163731 10.58885337 60.33984375 16.47998047 C70.51918985 19.46912609 80.75365956 22.25064673 91 25 C89.08566763 29.20975867 87.25151642 30.95016173 83 33 C74.58482586 33.3526909 66.18968882 30.34623886 58.19921875 28.0703125 C56.79073925 27.67484458 55.38211108 27.27990584 53.9733429 26.88546753 C51.03951658 26.06200329 48.10743598 25.23266524 45.17651367 24.39892578 C41.42942855 23.33346492 37.67851796 22.28226538 33.92622662 21.23530769 C31.02414298 20.42401405 28.12410941 19.60558521 25.22464943 18.78496933 C23.84221541 18.39455327 22.45918281 18.00625 21.07553673 17.62015152 C19.14297497 17.07965073 17.21338406 16.52856187 15.28393555 15.97705078 C14.18824753 15.66696075 13.09255951 15.35687073 11.96366882 15.03738403 C8.20184059 13.72061729 4.96915745 12.3773699 2.63671875 9.0625 C2.32347656 8.381875 2.01023438 7.70125 1.6875 7 C1.36136719 6.319375 1.03523437 5.63875 0.69921875 4.9375 C0 3 0 3 0 0 Z " fill="#2C4650" transform="translate(144,176)"/>
<path d="M0 0 C1.07637765 3.23003634 0.92860697 4.92033958 -0.30859375 8.06640625 C-2.18278791 13.27557922 -3.14382294 18.48970723 -4.0625 23.9375 C-4.38584146 25.80093369 -4.7100555 27.66421619 -5.03515625 29.52734375 C-5.19258301 30.44499512 -5.35000977 31.36264648 -5.51220703 32.30810547 C-5.97228315 34.84704404 -6.50824452 37.35829659 -7.05859375 39.87890625 C-9.23610165 50.67075446 -9.21091408 61.84417205 -9.5625 72.8125 C-9.60568359 74.08931641 -9.64886719 75.36613281 -9.69335938 76.68164062 C-9.79805755 79.7876865 -9.90023438 82.89379246 -10 86 C-13.96 86.99 -13.96 86.99 -18 88 C-18.53759063 61.86712199 -15.11828827 36.80513479 -8 11.625 C-7.77538086 10.79282959 -7.55076172 9.96065918 -7.31933594 9.10327148 C-6.16122438 5.24330682 -5.6044268 3.45859126 -2.3125 0.9609375 C-1.549375 0.64382812 -0.78625 0.32671875 0 0 Z " fill="#BC4B40" transform="translate(122,88)"/>
<path d="M0 0 C7.23884726 4.23522835 11.29847129 10.58562394 14.25 18.31640625 C14.82556977 20.7124819 15.08900083 22.84775234 15.25 25.31640625 C9.84007691 24.65665953 4.37129595 23.86971548 0.75390625 19.515625 C-0.21563093 18.12043735 -1.18040271 16.7219273 -2.140625 15.3203125 C-5.39453313 11.26872301 -9.88534405 8.93795823 -14.75 7.31640625 C-22.42298364 6.77058525 -28.75700225 7.02558378 -35.75 10.31640625 C-34.29403414 6.78160142 -32.45852557 4.99652492 -29.4375 2.69140625 C-28.67824219 2.10101563 -27.91898438 1.510625 -27.13671875 0.90234375 C-18.85565145 -4.60029672 -8.8429164 -4.06717469 0 0 Z " fill="#2C4650" transform="translate(172.75,122.68359375)"/>
<path d="M0 0 C5.93006308 4.21817695 9.53170821 10.22887522 12 17 C12.3125 20.625 12.3125 20.625 12 23 C3.40201394 22.14020139 3.40201394 22.14020139 0 20 C-1.421875 18.23046875 -1.421875 18.23046875 -2.75 16.1875 C-6.44842328 11.01158955 -10.99354698 8.00215101 -17 6 C-24.67298364 5.454179 -31.00700225 5.70917753 -38 9 C-35.47978026 3.30799151 -31.04336257 0.17886302 -25.75 -2.875 C-16.76615236 -5.57015429 -8.2727179 -4.34253261 0 0 Z " fill="#2C4750" transform="translate(255,148)"/>
<path d="M0 0 C0.268125 0.95777344 0.53625 1.91554687 0.8125 2.90234375 C3.88543575 13.47334995 8.09144514 23.1585302 13 33 C11.75579353 33.5345256 10.50429064 34.05208611 9.25 34.5625 C8.55390625 34.85253906 7.8578125 35.14257812 7.140625 35.44140625 C4.63382626 36.09555264 3.38016179 36.00243851 1 35 C-0.39731323 32.64663036 -1.46284663 30.50868269 -2.5 28 C-2.80043213 27.29681641 -3.10086426 26.59363281 -3.41040039 25.86914062 C-6.57227338 18.14636596 -8.37364834 10.162063 -10 2 C-8.7090864 1.66376204 -7.41723903 1.33110751 -6.125 1 C-5.40570313 0.814375 -4.68640625 0.62875 -3.9453125 0.4375 C-2 0 -2 0 0 0 Z " fill="#BB4C40" transform="translate(116,194)"/>
<path d="M0 0 C0.66 6.6 1.32 13.2 2 20 C-4.75 22.25 -4.75 22.25 -8 21 C-9.03590199 15.94997778 -9.10251672 11.12583611 -9 6 C-9.77085938 6.44472656 -10.54171875 6.88945312 -11.3359375 7.34765625 C-12.33882812 7.91355469 -13.34171875 8.47945312 -14.375 9.0625 C-15.37273437 9.63097656 -16.37046875 10.19945312 -17.3984375 10.78515625 C-18.25695312 11.18605469 -19.11546875 11.58695313 -20 12 C-20.66 11.67 -21.32 11.34 -22 11 C-15.8978477 5.16905447 -8.71281963 0 0 0 Z " fill="#304550" transform="translate(113,174)"/>
<path d="M0 0 C-0.85577292 5.81925583 -3.32713851 10.45264768 -7 15 C-7.66 14.67 -8.32 14.34 -9 14 C-7.68 11.03 -6.36 8.06 -5 5 C-6.43472656 5.40992188 -7.86945313 5.81984375 -9.34765625 6.2421875 C-20.72265625 9.4921875 -20.72265625 9.4921875 -23.46508789 10.27294922 C-25.02619566 10.72069832 -26.58568246 11.17420299 -28.14233398 11.63720703 C-31.55221604 12.64731009 -34.43015342 13.21635434 -38 13 C-38.33 12.01 -38.66 11.02 -39 10 C-30.5187969 7.27444281 -21.98538158 4.8910004 -13.36206055 2.66333008 C-12.18897339 2.36011841 -12.18897339 2.36011841 -10.9921875 2.05078125 C-10.29464355 1.87200439 -9.59709961 1.69322754 -8.87841797 1.5090332 C-3.30983213 0 -3.30983213 0 0 0 Z " fill="#384550" transform="translate(88,136)"/>
<path d="M0 0 C0.66 0.33 1.32 0.66 2 1 C1.7326001 1.74161377 1.4652002 2.48322754 1.18969727 3.24731445 C-0.01973835 6.6022431 -1.2286256 9.95736909 -2.4375 13.3125 C-2.85837891 14.47974609 -3.27925781 15.64699219 -3.71289062 16.84960938 C-4.11572266 17.96787109 -4.51855469 19.08613281 -4.93359375 20.23828125 C-5.30540771 21.26993408 -5.67722168 22.30158691 -6.06030273 23.36450195 C-6.72751046 25.23576915 -7.37176381 27.11529144 -8 29 C-12.33333333 32 -12.33333333 32 -15 32 C-13.70137861 25.37370109 -11.80541422 19.40443001 -9.1875 13.1875 C-8.85685547 12.35541016 -8.52621094 11.52332031 -8.18554688 10.66601562 C-6.1927855 5.89639292 -4.50677696 2.87080906 0 0 Z " fill="#2C4550" transform="translate(132,59)"/>
</svg>
